<?xml version="1.0" encoding="UTF-8" standalone="no"?><!DOCTYPE svg PUBLIC "-//W3C//DTD SVG 1.1//EN" "http://www.w3.org/Graphics/SVG/1.1/DTD/svg11.dtd"><svg width="100%" height="100%" viewBox="0 0 540 540" version="1.1" xmlns="http://www.w3.org/2000/svg" xmlns:xlink="http://www.w3.org/1999/xlink" xml:space="preserve" xmlns:serif="http://www.serif.com/" style="fill-rule:evenodd;clip-rule:evenodd;stroke-linejoin:round;stroke-miterlimit:2;"><g><path d="M223.503,218.671c-53.576,-23.342 -107.152,-46.683 -160.728,-70.025c-1.399,-26.839 -2.797,-53.679 -4.196,-80.519c53.498,23.554 106.995,47.108 160.492,70.662c-2.493,-44.934 -4.986,-89.867 -7.48,-134.801c28.943,12.97 57.887,25.939 86.83,38.909c2.565,44.739 5.131,89.478 7.696,134.217c53.497,23.554 106.995,47.108 160.492,70.662c1.599,26.3 3.199,52.599 4.798,78.898c-53.576,-23.341 -107.153,-46.682 -160.729,-70.024c5.416,94.449 10.832,188.898 16.249,283.347c-29.211,-12.249 -58.423,-24.498 -87.634,-36.747c-5.263,-94.86 -10.526,-189.719 -15.79,-284.579Z" style="fill:#4338ca;"/></g></svg>