<?xml version="1.0" encoding="UTF-8" standalone="no"?><!DOCTYPE svg PUBLIC "-//W3C//DTD SVG 1.1//EN" "http://www.w3.org/Graphics/SVG/1.1/DTD/svg11.dtd"><svg width="100%" height="100%" viewBox="0 0 1000 200" version="1.1" xmlns="http://www.w3.org/2000/svg" xmlns:xlink="http://www.w3.org/1999/xlink" xml:space="preserve" xmlns:serif="http://www.serif.com/" style="fill-rule:evenodd;clip-rule:evenodd;stroke-linejoin:round;stroke-miterlimit:2;"><g id="Sancta-Biblia" serif:id="Sancta Biblia"><g id="Biblia----Sacra" serif:id="Biblia    Sacra"><path d="M33.595,21.249c4.953,-0 9.774,-0.125 14.464,-0.375c4.689,-0.25 8.404,-0.375 11.144,-0.375c7.377,-0 13.463,1.208 18.258,3.624c4.795,2.417 8.589,5.583 11.381,9.499c2.793,3.916 4.769,8.124 5.928,12.624c1.16,4.499 1.739,8.832 1.739,12.998c0,4.5 -0.79,8.916 -2.371,13.249c-1.581,4.333 -3.609,8.207 -6.086,11.624c-2.477,3.416 -5.085,6.207 -7.825,8.374c4.637,2 8.879,4.916 12.725,8.749c3.847,3.833 6.956,8.666 9.327,14.498c2.371,5.833 3.557,12.749 3.557,20.748c-0,7.166 -1.423,14.332 -4.268,21.498c-2.846,7.166 -7.404,13.165 -13.674,17.998c-6.27,4.833 -14.675,7.249 -25.213,7.249c-4.637,-0 -8.405,-0.083 -11.303,-0.25c-2.898,-0.167 -5.638,-0.292 -8.22,-0.375c-2.582,-0.083 -5.77,-0.125 -9.563,-0.125c-1.792,0 -3.742,0.042 -5.849,0.125c-2.108,0.083 -3.899,0.208 -5.375,0.375c-1.475,0.167 -2.213,0.25 -2.213,0.25l-0.158,-0.75c0.632,-6.833 1.107,-14.54 1.423,-23.122c0.316,-8.583 0.474,-17.54 0.474,-26.873l-0,-61.243c-0,-19.164 -0.632,-35.829 -1.897,-49.994l0.316,-0.75c0,-0 0.738,0.083 2.213,0.25c1.476,0.166 3.241,0.291 5.296,0.375c2.055,0.083 3.978,0.125 5.77,0.125Zm10.749,23.747l-0,43.745l12.33,0c6.534,0 10.881,-2.125 13.041,-6.374c2.161,-4.25 3.241,-10.957 3.241,-20.123c-0,-10.832 -1.265,-18.29 -3.794,-22.372c-2.529,-4.083 -6.007,-6.125 -10.433,-6.125c-4.216,0 -7.351,0.375 -9.406,1.125c-2.055,0.75 -3.398,1.917 -4.031,3.5c-0.632,1.583 -0.948,3.791 -0.948,6.624Zm-0,56.994l-0,56.244c-0,4.166 0.922,7.166 2.766,8.999c1.844,1.833 5.506,2.749 10.986,2.749c7.061,0 12.146,-1.208 15.255,-3.624c3.109,-2.417 5.058,-5.791 5.849,-10.124c0.79,-4.333 1.185,-9.332 1.185,-14.998c0,-4.5 -0.263,-9.041 -0.79,-13.624c-0.527,-4.583 -1.528,-8.791 -3.004,-12.624c-1.475,-3.833 -3.609,-6.957 -6.402,-9.374c-2.792,-2.416 -6.507,-3.624 -11.144,-3.624l-14.701,-0Z" style="fill:#4338ca;fill-rule:nonzero;"/><path d="M126.544,123.737c-0,-9.332 -0.106,-18.373 -0.316,-27.122c-0.211,-8.749 -0.633,-15.79 -1.265,-21.122l0.474,-1c1.37,0.166 3.083,0.333 5.138,0.5c2.055,0.166 4.083,0.25 6.086,0.25c2.213,-0 4.32,-0.167 6.323,-0.5c2.002,-0.334 3.53,-0.584 4.584,-0.75c0.948,-0 1.423,0.833 1.423,2.5c-0.527,7.499 -0.923,14.456 -1.186,20.872c-0.263,6.416 -0.395,14.29 -0.395,23.623l-0,16.498c-0,9.499 0.105,17.581 0.316,24.247c0.211,6.666 0.632,13.582 1.265,20.748l-0.317,0.75c-1.475,-0.333 -3.108,-0.542 -4.9,-0.625c-1.791,-0.083 -4.057,-0.125 -6.797,-0.125c-2.74,0 -4.953,0.042 -6.639,0.125c-1.687,0.083 -3.373,0.292 -5.059,0.625l-0.316,-0.75c0.632,-6.833 1.054,-13.707 1.265,-20.623c0.21,-6.916 0.316,-15.04 0.316,-24.372l-0,-13.749Z" style="fill:#4338ca;fill-rule:nonzero;"/><path d="M196.097,57.495l0,28.996c4.743,-5.666 8.721,-9.373 11.935,-11.123c3.215,-1.75 6.508,-2.625 9.88,-2.625c4.215,-0 8.088,0.958 11.619,2.875c3.53,1.916 6.876,5.124 10.038,9.624c2.95,4.166 5.137,9.499 6.56,15.998c1.422,6.499 2.134,13.415 2.134,20.748c-0,11.165 -1.265,20.956 -3.794,29.371c-2.529,8.416 -5.691,15.207 -9.485,20.373c-3.477,4.666 -7.271,8.041 -11.381,10.124c-4.11,2.083 -8.22,3.125 -12.33,3.125c-2.846,-0 -5.77,-0.125 -8.773,-0.375c-3.004,-0.25 -5.138,-0.792 -6.403,-1.625c-1.264,-0.833 -2.871,-1.583 -4.821,-2.25c-1.949,-0.666 -3.346,-1 -4.189,-1c-0.738,0 -1.897,0.417 -3.478,1.25c-1.58,0.833 -3.135,1.708 -4.663,2.625c-1.528,0.917 -2.608,1.458 -3.24,1.625c-0.422,-0.167 -0.764,-0.375 -1.028,-0.625c-0.263,-0.25 -0.5,-0.458 -0.711,-0.625c0.211,-1.833 0.421,-4.916 0.632,-9.249c0.211,-4.333 0.369,-8.916 0.474,-13.749c0.106,-4.832 0.158,-8.832 0.158,-11.998l0,-84.991c0,-9.499 -0.158,-18.373 -0.474,-26.622c-0.316,-8.249 -0.79,-15.04 -1.423,-20.373l0.317,-0.75c2.107,-0.333 4.716,-1 7.824,-2c3.109,-1 6.06,-2.083 8.853,-3.249c2.792,-1.167 4.874,-2.167 6.244,-3c0.948,-0 1.422,0.833 1.422,2.5c-0.632,7.666 -1.106,15.081 -1.422,22.247c-0.316,7.166 -0.475,15.415 -0.475,24.748Zm2.688,111.488c2.318,2.333 6.165,3.499 11.539,3.499c2.213,0 4.427,-0.875 6.64,-2.625c2.213,-1.749 4.004,-4.874 5.374,-9.374c1.265,-3.832 2.161,-8.582 2.688,-14.248c0.526,-5.666 0.79,-12.082 0.79,-19.248c-0,-12.165 -1.265,-21.414 -3.794,-27.747c-2.529,-6.333 -6.218,-9.499 -11.065,-9.499c-1.897,0 -3.873,0.708 -5.928,2.125c-2.055,1.416 -5.032,4.291 -8.932,8.624l0,54.994c0,3.5 0.185,6.333 0.554,8.499c0.369,2.167 1.08,3.833 2.134,5Z" style="fill:#4338ca;fill-rule:nonzero;"/><path d="M267.864,132.486l0,-68.492c0,-9.499 -0.158,-18.373 -0.474,-26.622c-0.316,-8.249 -0.79,-15.04 -1.423,-20.373l0.317,-0.75c2.107,-0.333 4.689,-1 7.745,-2c3.056,-1 5.955,-2.083 8.695,-3.249c2.74,-1.167 4.795,-2.167 6.165,-3c1.159,-0 1.738,0.833 1.738,2.5c-0.632,7.666 -1.106,15.081 -1.422,22.247c-0.316,7.166 -0.475,15.415 -0.475,24.748l0,74.991c0,9.333 0.159,18.207 0.475,26.623c0.316,8.415 0.79,16.206 1.422,23.372l-0.316,0.75c0,-0 -1.317,-0.125 -3.952,-0.375c-2.634,-0.25 -5.322,-0.375 -8.062,-0.375c-2.74,0 -5.453,0.125 -8.141,0.375c-2.687,0.25 -4.031,0.375 -4.031,0.375l-0.158,-0.75c0.633,-6.666 1.107,-14.332 1.423,-22.997c0.316,-8.666 0.474,-17.665 0.474,-26.998Z" style="fill:#4338ca;fill-rule:nonzero;"/><path d="M316.552,123.737c-0,-9.332 -0.105,-18.373 -0.316,-27.122c-0.211,-8.749 -0.633,-15.79 -1.265,-21.122l0.474,-1c1.37,0.166 3.083,0.333 5.138,0.5c2.055,0.166 4.084,0.25 6.086,0.25c2.213,-0 4.321,-0.167 6.323,-0.5c2.002,-0.334 3.53,-0.584 4.584,-0.75c0.949,-0 1.423,0.833 1.423,2.5c-0.527,7.499 -0.922,14.456 -1.186,20.872c-0.263,6.416 -0.395,14.29 -0.395,23.623l0,16.498c0,9.499 0.105,17.581 0.316,24.247c0.211,6.666 0.633,13.582 1.265,20.748l-0.316,0.75c-1.476,-0.333 -3.109,-0.542 -4.901,-0.625c-1.791,-0.083 -4.057,-0.125 -6.797,-0.125c-2.74,0 -4.953,0.042 -6.639,0.125c-1.686,0.083 -3.373,0.292 -5.059,0.625l-0.316,-0.75c0.632,-6.833 1.054,-13.707 1.265,-20.623c0.211,-6.916 0.316,-15.04 0.316,-24.372l-0,-13.749Z" style="fill:#4338ca;fill-rule:nonzero;"/><path d="M420.725,162.483c-0,4.166 0.816,6.708 2.45,7.624c1.633,0.917 4.031,1.375 7.192,1.375c0.843,1.167 1.37,2.917 1.581,5.25c-2.318,2.833 -5.269,4.916 -8.852,6.249c-3.583,1.333 -6.903,2 -9.959,2c-3.372,-0 -6.007,-1.125 -7.904,-3.375c-1.897,-2.25 -3.425,-5.958 -4.584,-11.124l-0.316,0c-3.583,5.666 -7.325,9.499 -11.224,11.499c-3.899,2 -7.377,3 -10.433,3c-3.688,-0 -7.192,-1.042 -10.512,-3.125c-3.32,-2.083 -6.007,-5.166 -8.062,-9.249c-2.055,-4.083 -3.082,-8.957 -3.082,-14.623c-0,-8.499 2.16,-15.832 6.481,-21.998c4.321,-6.166 10.275,-10.665 17.862,-13.498l18.495,-7.75c0.633,-0.333 0.949,-1.333 0.949,-2.999c-0,-9.666 -0.949,-16.332 -2.846,-19.998c-1.896,-3.666 -4.584,-5.499 -8.061,-5.499c-3.584,-0 -7.035,1.708 -10.354,5.124c-3.32,3.416 -6.35,8.291 -9.09,14.623l-5.216,-0.25l-3.162,-18.748l0.474,-0.999c1.265,-1.834 3.583,-3.75 6.956,-5.75c3.372,-2 7.166,-3.749 11.381,-5.249c4.216,-1.5 8.22,-2.25 12.014,-2.25c3.794,-0 7.798,0.792 12.014,2.375c4.215,1.583 7.588,4.124 10.117,7.624c2.213,3 3.82,6.957 4.821,11.874c1.001,4.916 1.502,11.123 1.502,18.623c-0,0.5 -0.185,12.123 -0.237,16.373c-0.053,4.249 -0.106,8.624 -0.158,13.123c-0.053,4.5 -0.106,8.541 -0.158,12.124c-0.053,3.583 -0.079,6.124 -0.079,7.624Zm-19.918,-35.496l-12.646,5.25c-4.005,1.666 -6.666,4.874 -7.983,9.623c-1.317,4.75 -1.976,9.374 -1.976,13.874c-0,3.333 0.79,6.541 2.371,9.624c1.581,3.083 3.53,4.624 5.849,4.624c4.215,0 8.114,-2.833 11.698,-8.499c0.526,-0.833 1.053,-2.499 1.58,-4.999c0.527,-2.5 0.791,-4.583 0.791,-6.249l0.316,-23.248Z" style="fill:#4338ca;fill-rule:nonzero;"/><path d="M631.283,171.982c4.742,0 8.378,-2.083 10.907,-6.249c2.529,-4.166 3.794,-10.666 3.794,-19.498c-0,-5.166 -1.37,-10.082 -4.11,-14.748c-2.74,-4.667 -5.954,-8.499 -9.643,-11.499c-4.531,-3.666 -9.511,-7.999 -14.938,-12.999c-5.427,-4.999 -9.985,-11.249 -13.674,-18.748c-1.897,-3.833 -3.188,-8.082 -3.873,-12.748c-0.685,-4.666 -1.027,-9.416 -1.027,-14.249c-0,-8.832 1.607,-16.498 4.821,-22.997c3.214,-6.5 7.43,-11.499 12.646,-14.999c5.217,-3.499 10.776,-5.249 16.677,-5.249c6.429,-0 12.067,0.958 16.915,2.875c4.847,1.916 8.615,3.791 11.302,5.624c2.687,1.833 4.031,2.75 4.031,2.75l0.316,0.75c-0.737,3.666 -1.37,8.457 -1.897,14.373c-0.527,5.916 -0.948,11.124 -1.264,15.623l-4.743,0.25c-1.37,-4.166 -3.24,-8.54 -5.611,-13.123c-2.371,-4.583 -5.059,-8.541 -8.062,-11.874c-3.004,-3.333 -6.086,-4.999 -9.248,-4.999c-4.32,-0 -7.798,2.458 -10.433,7.374c-2.634,4.916 -3.952,10.54 -3.952,16.873c0,6.166 0.738,11.124 2.213,14.873c1.476,3.75 3.452,6.791 5.928,9.124c2.477,2.333 5.138,4.583 7.983,6.75c3.162,2.333 6.56,5.041 10.196,8.124c3.636,3.083 7.061,6.624 10.275,10.624c3.214,3.999 5.823,8.624 7.825,13.873c2.002,5.25 3.003,11.291 3.003,18.123c0,8.499 -1.528,16.498 -4.584,23.998c-3.056,7.499 -7.403,13.54 -13.041,18.123c-5.638,4.582 -12.357,6.874 -20.155,6.874c-6.428,-0 -12.198,-0.917 -17.309,-2.75c-5.112,-1.833 -9.169,-3.708 -12.172,-5.624c-3.004,-1.917 -4.505,-2.875 -4.505,-2.875l-0.317,-0.75c0.633,-3.833 1.239,-8.749 1.818,-14.748c0.58,-6 1.028,-11.249 1.344,-15.749l4.11,-0.25c1.897,4.333 4.452,8.833 7.667,13.499c3.214,4.666 6.692,8.541 10.433,11.624c3.741,3.083 7.192,4.624 10.354,4.624Z" style="fill:#4338ca;fill-rule:nonzero;"/><path d="M746.046,162.483c0,4.166 0.817,6.708 2.451,7.624c1.633,0.917 4.031,1.375 7.192,1.375c0.843,1.167 1.37,2.917 1.581,5.25c-2.319,2.833 -5.269,4.916 -8.852,6.249c-3.583,1.333 -6.903,2 -9.959,2c-3.373,-0 -6.007,-1.125 -7.904,-3.375c-1.897,-2.25 -3.425,-5.958 -4.584,-11.124l-0.316,0c-3.584,5.666 -7.325,9.499 -11.224,11.499c-3.899,2 -7.377,3 -10.433,3c-3.688,-0 -7.192,-1.042 -10.512,-3.125c-3.32,-2.083 -6.007,-5.166 -8.062,-9.249c-2.055,-4.083 -3.082,-8.957 -3.082,-14.623c-0,-8.499 2.16,-15.832 6.481,-21.998c4.32,-6.166 10.275,-10.665 17.862,-13.498l18.495,-7.75c0.633,-0.333 0.949,-1.333 0.949,-2.999c-0,-9.666 -0.949,-16.332 -2.846,-19.998c-1.897,-3.666 -4.584,-5.499 -8.062,-5.499c-3.583,-0 -7.034,1.708 -10.354,5.124c-3.319,3.416 -6.349,8.291 -9.089,14.623l-5.216,-0.25l-3.162,-18.748l0.474,-0.999c1.265,-1.834 3.583,-3.75 6.956,-5.75c3.372,-2 7.166,-3.749 11.381,-5.249c4.215,-1.5 8.22,-2.25 12.014,-2.25c3.794,-0 7.798,0.792 12.014,2.375c4.215,1.583 7.587,4.124 10.117,7.624c2.213,3 3.82,6.957 4.821,11.874c1.001,4.916 1.502,11.123 1.502,18.623c-0,0.5 -0.185,12.123 -0.237,16.373c-0.053,4.249 -0.106,8.624 -0.158,13.123c-0.053,4.5 -0.106,8.541 -0.159,12.124c-0.052,3.583 -0.079,6.124 -0.079,7.624Zm-19.917,-35.496l-12.646,5.25c-4.005,1.666 -6.666,4.874 -7.983,9.623c-1.318,4.75 -1.976,9.374 -1.976,13.874c-0,3.333 0.79,6.541 2.371,9.624c1.581,3.083 3.53,4.624 5.849,4.624c4.215,0 8.114,-2.833 11.697,-8.499c0.527,-0.833 1.054,-2.499 1.581,-4.999c0.527,-2.5 0.791,-4.583 0.791,-6.249l0.316,-23.248Z" style="fill:#4338ca;fill-rule:nonzero;"/><path d="M805.483,85.242c-2.74,-0 -5.374,1.041 -7.904,3.124c-2.529,2.083 -4.584,5.041 -6.165,8.874c-2.529,6.5 -3.793,15.915 -3.793,28.247c-0,7.166 0.447,13.624 1.343,19.373c0.896,5.75 2.029,10.457 3.399,14.124c1.475,3.666 3.557,6.832 6.244,9.499c2.687,2.666 5.19,3.999 7.509,3.999c3.161,0 6.481,-0.958 9.958,-2.875c3.478,-1.916 6.323,-4.957 8.537,-9.124l2.529,1.25c-0,2 0.079,3.833 0.237,5.5c0.158,1.666 0.342,3.083 0.553,4.249c-3.583,4.666 -7.324,8.083 -11.223,10.249c-3.899,2.167 -8.853,3.25 -14.859,3.25c-5.902,-0 -11.356,-1.458 -16.361,-4.375c-5.006,-2.916 -8.932,-6.791 -11.777,-11.623c-2.635,-4.667 -4.716,-10.041 -6.244,-16.124c-1.528,-6.082 -2.292,-13.04 -2.292,-20.872c-0,-13.166 1.765,-24.123 5.295,-32.872c3.531,-8.749 8.247,-15.332 14.148,-19.748c5.902,-4.416 12.383,-6.624 19.444,-6.624c2.634,-0 5.453,0.417 8.457,1.25c3.003,0.833 5.875,1.875 8.615,3.125c2.74,1.249 4.9,2.541 6.481,3.874l0.316,0.75l-3.794,24.247l-4.426,0.25c-3.583,-13.998 -8.325,-20.997 -14.227,-20.997Z" style="fill:#4338ca;fill-rule:nonzero;"/><path d="M868.714,95.241c1.37,-3.333 3.082,-6.708 5.137,-10.124c2.055,-3.417 4.295,-6.333 6.719,-8.749c2.424,-2.417 4.847,-3.625 7.271,-3.625c2.846,-0 5.533,0.583 8.062,1.75l0.632,1l-3.161,25.747l-2.845,0.5c-1.37,-1.833 -2.872,-3.083 -4.506,-3.75c-1.633,-0.666 -3.187,-1 -4.663,-1c-0.632,0 -1.66,0.25 -3.082,0.75c-1.423,0.5 -2.925,1.542 -4.506,3.125c-1.58,1.583 -2.924,3.833 -4.031,6.749c-1.106,2.917 -1.659,6.791 -1.659,11.624l-0,18.248c-0,9.499 0.105,17.581 0.316,24.247c0.211,6.666 0.632,13.582 1.264,20.748l-0.316,0.75c0,-0 -0.711,-0.083 -2.134,-0.25c-1.422,-0.167 -3.135,-0.292 -5.137,-0.375c-2.003,-0.083 -3.899,-0.125 -5.691,-0.125c-2.74,0 -5.19,0.125 -7.351,0.375c-2.16,0.25 -3.24,0.375 -3.24,0.375l-0.158,-0.75c0.632,-6.833 1.054,-13.707 1.264,-20.623c0.211,-6.916 0.317,-15.04 0.317,-24.372l-0,-13.749c-0,-9.332 -0.132,-18.414 -0.396,-27.247c-0.263,-8.832 -0.711,-15.915 -1.343,-21.247l0.316,-0.75c1.897,0.166 4.136,0.25 6.718,0.25c2.582,-0 5.138,-0.084 7.667,-0.25c2.529,-0.167 4.531,-0.417 6.007,-0.75c0.737,-0 1.212,0.833 1.422,2.5c0.106,0.999 0.211,3.583 0.317,7.749c0.105,4.166 0.158,7.666 0.158,10.499l0.632,0.75Z" style="fill:#4338ca;fill-rule:nonzero;"/><path d="M968.777,162.483c-0,4.166 0.816,6.708 2.45,7.624c1.633,0.917 4.031,1.375 7.192,1.375c0.843,1.167 1.37,2.917 1.581,5.25c-2.318,2.833 -5.269,4.916 -8.852,6.249c-3.583,1.333 -6.903,2 -9.959,2c-3.372,-0 -6.007,-1.125 -7.904,-3.375c-1.897,-2.25 -3.425,-5.958 -4.584,-11.124l-0.316,0c-3.583,5.666 -7.325,9.499 -11.224,11.499c-3.899,2 -7.377,3 -10.433,3c-3.688,-0 -7.192,-1.042 -10.512,-3.125c-3.32,-2.083 -6.007,-5.166 -8.062,-9.249c-2.055,-4.083 -3.082,-8.957 -3.082,-14.623c-0,-8.499 2.16,-15.832 6.481,-21.998c4.321,-6.166 10.275,-10.665 17.862,-13.498l18.495,-7.75c0.633,-0.333 0.949,-1.333 0.949,-2.999c-0,-9.666 -0.949,-16.332 -2.845,-19.998c-1.897,-3.666 -4.585,-5.499 -8.062,-5.499c-3.583,-0 -7.035,1.708 -10.354,5.124c-3.32,3.416 -6.35,8.291 -9.09,14.623l-5.216,-0.25l-3.162,-18.748l0.474,-0.999c1.265,-1.834 3.583,-3.75 6.956,-5.75c3.372,-2 7.166,-3.749 11.381,-5.249c4.216,-1.5 8.22,-2.25 12.014,-2.25c3.794,-0 7.798,0.792 12.014,2.375c4.215,1.583 7.588,4.124 10.117,7.624c2.213,3 3.82,6.957 4.821,11.874c1.001,4.916 1.502,11.123 1.502,18.623c-0,0.5 -0.185,12.123 -0.237,16.373c-0.053,4.249 -0.106,8.624 -0.158,13.123c-0.053,4.5 -0.106,8.541 -0.158,12.124c-0.053,3.583 -0.079,6.124 -0.079,7.624Zm-19.918,-35.496l-12.646,5.25c-4.005,1.666 -6.666,4.874 -7.983,9.623c-1.317,4.75 -1.976,9.374 -1.976,13.874c-0,3.333 0.79,6.541 2.371,9.624c1.581,3.083 3.53,4.624 5.849,4.624c4.215,0 8.115,-2.833 11.698,-8.499c0.527,-0.833 1.053,-2.499 1.58,-4.999c0.527,-2.5 0.791,-4.583 0.791,-6.249l0.316,-23.248Z" style="fill:#4338ca;fill-rule:nonzero;"/></g><path d="M132.439,37c-0,-0 14.975,13.505 14.975,19.293c-0,5.909 -4.798,10.707 -10.707,10.707c-5.909,-0 -10.707,-4.798 -10.707,-10.707c-0,-5.788 6.439,-19.293 6.439,-19.293Z" style="fill:#4338ca;"/><path d="M322.439,37c-0,-0 14.975,13.505 14.975,19.293c-0,5.909 -4.798,10.707 -10.707,10.707c-5.909,-0 -10.707,-4.798 -10.707,-10.707c-0,-5.788 6.439,-19.293 6.439,-19.293Z" style="fill:#4338ca;"/><path d="M512.5,11l0,175.231l-25,-8l-0,-175.231l25,8Z" style="fill:#4338ca;"/><path d="M571.512,111.882l-163.5,-61.252l20.476,-19.026l163.5,61.252l-20.476,19.026Z" style="fill:#4338ca;"/></g></svg>